<?xml version="1.0" encoding="UTF-8"?>
<svg id="uuid-f89fe6a1-c67d-4425-a318-22efad1c7433" data-name="Layer 3" xmlns="http://www.w3.org/2000/svg" viewBox="590 170 500 800">
    <defs>
        <style>
            .uuid-6079b5a5-4b45-4f46-a059-b5c68018cf1a {
            fill: #d66e45;
            }

            .uuid-6079b5a5-4b45-4f46-a059-b5c68018cf1a, .uuid-f14ec8c0-ec23-4774-9654-fb4cffb19988, .uuid-14f19fc0-cf72-4fa4-9ef3-ef2678b9a9b9, .uuid-167612cb-6259-4e85-9f67-d5316ff431d0 {
            stroke-width: 0px;
            }

            .uuid-f14ec8c0-ec23-4774-9654-fb4cffb19988 {
            fill: #d18762;
            }

            .uuid-14f19fc0-cf72-4fa4-9ef3-ef2678b9a9b9 {
            fill: #ed1e79;
            }

            .uuid-167612cb-6259-4e85-9f67-d5316ff431d0 {
            fill: #fff;
            opacity: .2;
            }
        </style>
    </defs>
    <g>
        <path class="uuid-14f19fc0-cf72-4fa4-9ef3-ef2678b9a9b9" d="m967.8,616.67h-68.12c3.16-4.21,6.23-8.65,9.16-13.25,9.59-15.08,16.85-30.73,20.46-44.07,7.9-29.23-3.83-41.79-11.52-46.68-4.67-2.97-10.17-4.54-15.89-4.54h0c-26.39,0-51.47,34.09-61.75,50.02-10.28-15.93-35.35-50.02-61.75-50.02-5.72,0-11.22,1.57-15.9,4.55-7.69,4.88-19.42,17.45-11.51,46.68,3.6,13.34,10.87,28.99,20.46,44.07,2.92,4.6,5.99,9.04,9.16,13.25h-79.51v113.61l11.45-.07v158.93h266.74v-158.93l11.46.07v-113.61h-22.91Zm-232.38,249.56v-138.32h220.93v138.32h-220.93Zm232.38-161.23h-243.83v-65.42h81.69c12.91,0,11.95-8.67,8.9-15.64-1.73-3.96-9.81-13.59-12.21-16.58-3.93-4.87-7.85-10.33-11.6-16.23-17.32-27.26-24.48-53.73-15.98-59.13,1.03-.65,2.24-.97,3.61-.97,9.91,0,27.92,16.59,43.14,40.54,9.27,14.58,15.63,28.93,18.23,39.96.06.23.18.32.31.32.19,0,.41-.19.45-.37,2.61-11.02,8.97-25.35,18.22-39.91,15.23-23.95,33.24-40.54,43.14-40.54,1.37,0,2.58.31,3.61.97,8.49,5.4,1.34,31.87-15.98,59.13-3.76,5.91-7.68,11.36-11.61,16.23-2.41,2.98-10.49,12.62-12.21,16.58-3.04,6.97-4.01,15.64,8.91,15.64h93.21v65.42Z"/>
        <path class="uuid-f14ec8c0-ec23-4774-9654-fb4cffb19988" d="m747.96,506.69h-57.44l-1.49.26c-25.3,4.46-73.16,29.33-73.16,91.48v276.96l.08,1.62c2.55,27.18,23.07,78.59,82.5,78.59h43.62c9.56,0,17.31-7.75,17.31-17.31s-7.75-17.31-17.31-17.31h-43.62c-40.36,0-47.08-39.44-47.96-46.54v-276c0-44.5,35.25-55.25,43.32-57.12h40.74c.05-17.27,6.92-28.19,13.41-34.62Z"/>
        <path class="uuid-6079b5a5-4b45-4f46-a059-b5c68018cf1a" d="m808.11,467.33l-6.65-5.88c-39.44-19.78-64.93-64.53-64.93-114.01,0-68.51,48.38-124.25,107.84-124.25.52,0,1.01-.11,1.52-.15.51.05,1,.15,1.52.15,59.46,0,107.84,55.74,107.84,124.25,0,49.48-25.49,94.23-64.93,114.01l-6.65,5.88c-4.71,7.07-9.98,20.32-7.94,34.39,8.2-4.57,16.99-7.44,26.16-7.44h0c2.71,0,5.37.27,7.99.75.04-1.92.57-3.84,1.14-5.37,48.08-26.76,78.85-81.89,78.85-142.21,0-87.6-63.9-158.87-142.46-158.87-.52,0-1.01.11-1.52.15-.51-.05-1-.15-1.52-.15-78.55,0-142.46,71.27-142.46,158.87,0,60.31,30.76,115.44,78.83,142.21.52,1.38,1.01,3.08,1.13,4.81,11.72.92,22.76,6.36,32.66,13.88,5.22-16.41-.99-32.83-6.43-41Z"/>
        <path class="uuid-6079b5a5-4b45-4f46-a059-b5c68018cf1a" d="m1002.74,506.96l-1.49-.26h-68.97c6.49,6.43,13.37,17.35,13.41,34.62h52.23c8.32,1.94,43.34,12.76,43.34,57.12v276.03c-.74,6.04-7.2,46.51-47.96,46.51h-43.62c-9.56,0-17.31,7.75-17.31,17.31s7.75,17.31,17.31,17.31h43.62c59.43,0,79.95-51.41,82.5-78.59l.07-.81v-277.77c0-62.15-47.85-87.01-73.16-91.48Z"/>
        <path class="uuid-6079b5a5-4b45-4f46-a059-b5c68018cf1a" d="m845.88,430.53c-55.21,0-72.24-39.55-72.93-41.23-1.24-2.99-1.24-6.28,0-9.27,1.24-2.99,3.57-5.32,6.56-6.56,1.48-.61,3.04-.92,4.63-.92,4.9,0,9.29,2.92,11.18,7.44.44,1.04,11.7,26.32,50.56,26.32s50.11-25.28,50.58-26.36c1.85-4.46,6.24-7.4,11.16-7.4,1.6,0,3.16.31,4.64.93,2.99,1.24,5.31,3.57,6.55,6.56,1.24,2.99,1.24,6.29,0,9.27-.7,1.68-17.72,41.23-72.93,41.23Z"/>
    </g>
</svg>
